<svg width="110" height="110" viewBox="0 0 110 110" fill="none" xmlns="http://www.w3.org/2000/svg">
<path d="M55 110C85.3757 110 110 85.3757 110 55C110 24.6243 85.3757 0 55 0C24.6243 0 0 24.6243 0 55C0 85.3757 24.6243 110 55 110Z" fill="#81D2EB"/>
<path d="M23 26.84C23 24.719 24.719 23 26.84 23H55L71 36.44V83.16C71 85.281 69.281 87 67.16 87H26.84C24.719 87 23 85.281 23 83.16V26.84Z" fill="white"/>
<path d="M55 23V32.6C55 34.721 56.719 36.44 58.84 36.44H71L55 23Z" fill="#BBE7F2"/>
<path d="M77 41.5L82 31L87 41.5V80H77V41.5Z" fill="white"/>
<path d="M87 47V41.5L82 31V47H87Z" fill="#E1F5FA"/>
<path d="M87 84C87 85.657 85.657 87 84 87H80C78.343 87 77 85.657 77 84V82H87V84Z" fill="#E1F5FA"/>
<path d="M62 45C62 45.55 61.55 46 61 46H46C45.45 46 45 45.55 45 45C45 44.45 45.45 44 46 44H61C61.55 44 62 44.45 62 45Z" fill="#BBE7F2"/>
<path d="M56 50C56 50.55 55.55 51 55 51H46C45.45 51 45 50.55 45 50C45 49.45 45.45 49 46 49H55C55.55 49 56 49.45 56 50Z" fill="#BBE7F2"/>
<path d="M62 58C62 58.55 61.55 59 61 59H46C45.45 59 45 58.55 45 58C45 57.45 45.45 57 46 57H61C61.55 57 62 57.45 62 58Z" fill="#BBE7F2"/>
<path d="M56 63C56 63.55 55.55 64 55 64H46C45.45 64 45 63.55 45 63C45 62.45 45.45 62 46 62H55C55.55 62 56 62.45 56 63Z" fill="#BBE7F2"/>
<path d="M62 71C62 71.55 61.55 72 61 72H46C45.45 72 45 71.55 45 71C45 70.45 45.45 70 46 70H61C61.55 70 62 70.45 62 71Z" fill="#BBE7F2"/>
<path d="M56 76C56 76.55 55.55 77 55 77H46C45.45 77 45 76.55 45 76C45 75.45 45.45 75 46 75H55C55.55 75 56 75.45 56 76Z" fill="#BBE7F2"/>
<path d="M35.067 52L31.293 48.226C30.902 47.836 30.902 47.202 31.293 46.812C31.684 46.421 32.316 46.421 32.707 46.812L34.933 49.038L39.232 43.879C39.586 43.455 40.216 43.398 40.64 43.751C41.064 44.104 41.122 44.735 40.768 45.159L35.067 52Z" fill="#009FC7"/>
<path d="M35.067 65L31.293 61.226C30.902 60.836 30.902 60.202 31.293 59.812C31.684 59.421 32.316 59.421 32.707 59.812L34.933 62.038L39.232 56.879C39.586 56.455 40.216 56.398 40.64 56.751C41.064 57.104 41.122 57.735 40.768 58.159L35.067 65Z" fill="#009FC7"/>
<path d="M35.067 78L31.293 74.226C30.902 73.836 30.902 73.203 31.293 72.812C31.684 72.421 32.316 72.421 32.707 72.812L34.933 75.038L39.232 69.879C39.586 69.455 40.216 69.398 40.64 69.751C41.064 70.104 41.122 70.735 40.768 71.159L35.067 78Z" fill="#009FC7"/>
<path d="M87 79H77V82H87V79Z" fill="#0F6175"/>
<path d="M82 80H77V82H82V80Z" fill="#33899E"/>
<path d="M82.013 30.984L80.156 34.883C80.668 35.561 81.308 35.984 82.013 35.984C82.718 35.984 83.358 35.561 83.87 34.883L82.013 30.984Z" fill="#0C333D"/>
<path d="M84.5 43C83.346 43 82.374 42.218 82.086 41.155C82.06 41.058 81.939 41.058 81.913 41.155C81.626 42.218 80.654 43 79.5 43C78.448 43 77.547 42.35 77.178 41.43C77.139 41.332 77 41.359 77 41.464V80H87V41.464C87 41.359 86.861 41.332 86.822 41.43C86.453 42.35 85.552 43 84.5 43Z" fill="#0081A1"/>
<path d="M77 80V41.494C77 41.382 77.146 41.354 77.19 41.457C77.565 42.363 78.458 43 79.5 43C80.659 43 81.634 42.211 81.916 41.142C81.931 41.089 82 41.096 82 41.149V80H77Z" fill="#009FC7"/>
<path d="M77 82V84C77 85.657 78.343 87 80 87H82V82H77Z" fill="white"/>
</svg>
